<?xml version="1.0" encoding="UTF-8" standalone="no"?>
<!DOCTYPE svg PUBLIC "-//W3C//DTD SVG 1.1//EN"
 "http://www.w3.org/Graphics/SVG/1.1/DTD/svg11.dtd">
<!-- Generated by graphviz version 2.34.0 (20131222.0037)
 -->
<!-- Title: archi Pages: 1 -->
<svg width="450pt" height="348pt"
 viewBox="0.00 0.00 450.00 348.00" xmlns="http://www.w3.org/2000/svg" xmlns:xlink="http://www.w3.org/1999/xlink">
<g id="graph0" class="graph" transform="scale(1 1) rotate(0) translate(4 344)">
<title>archi</title>
<polygon fill="white" stroke="white" points="-4,4 -4,-344 446,-344 446,4 -4,4"/>
<!-- front -->
<g id="node1" class="node"><title>front</title>
<text text-anchor="middle" x="71" y="-318.2" font-family="Linux Biolinum O" font-size="16.00">Applications</text>
</g>
<!-- daemons -->
<g id="node2" class="node"><title>daemons</title>
<text text-anchor="middle" x="71" y="-249.2" font-family="Linux Biolinum O" font-size="16.00">Démons auxiliaires</text>
<text text-anchor="middle" x="71" y="-231.2" font-family="Linux Biolinum O" font-size="16.00">de GnuPG 2.x</text>
</g>
<!-- front&#45;&gt;daemons -->
<g id="edge1" class="edge"><title>front&#45;&gt;daemons</title>
<path fill="none" stroke="black" d="M71,-303.754C71,-292.63 71,-278.084 71,-266.248"/>
</g>
<!-- middleware -->
<g id="node3" class="node"><title>middleware</title>
<text text-anchor="middle" x="71" y="-88.2" font-family="Linux Biolinum O" font-size="16.00">Middleware</text>
</g>
<!-- daemons&#45;&gt;middleware -->
<g id="edge2" class="edge"><title>daemons&#45;&gt;middleware</title>
<path fill="none" stroke="black" d="M71,-221.827C71,-191.947 71,-137.975 71,-110.336"/>
</g>
<!-- hardware -->
<g id="node4" class="node"><title>hardware</title>
<text text-anchor="middle" x="71" y="-14.2" font-family="Linux Biolinum O" font-size="16.00">Matériel</text>
</g>
<!-- middleware&#45;&gt;hardware -->
<g id="edge3" class="edge"><title>middleware&#45;&gt;hardware</title>
<path fill="none" stroke="black" d="M71,-73.937C71,-62.626 71,-47.8282 71,-36.4407"/>
</g>
<!-- gpg -->
<g id="node5" class="node"><title>gpg</title>
<ellipse fill="none" stroke="black" cx="250" cy="-322" rx="27" ry="18"/>
<text text-anchor="middle" x="250" y="-318.3" font-family="Linux Biolinum O" font-size="14.00">gpg</text>
</g>
<!-- agent -->
<g id="node8" class="node"><title>agent</title>
<ellipse fill="none" stroke="black" cx="326" cy="-244" rx="48.1437" ry="18"/>
<text text-anchor="middle" x="326" y="-240.3" font-family="Linux Biolinum O" font-size="14.00">gpg&#45;agent</text>
</g>
<!-- gpg&#45;&gt;agent -->
<g id="edge7" class="edge"><title>gpg&#45;&gt;agent</title>
<path fill="none" stroke="black" d="M264.295,-306.705C275.049,-295.951 290.019,-280.981 302.522,-268.478"/>
<polygon fill="black" stroke="black" points="305.331,-270.619 309.927,-261.073 300.381,-265.669 305.331,-270.619"/>
</g>
<!-- pcsc -->
<g id="node9" class="node"><title>pcsc</title>
<ellipse fill="none" stroke="black" cx="249" cy="-92" rx="50.0684" ry="18"/>
<text text-anchor="middle" x="249" y="-88.3" font-family="Linux Biolinum O" font-size="14.00">PCSC&#45;Lite</text>
</g>
<!-- gpg&#45;&gt;pcsc -->
<g id="edge6" class="edge"><title>gpg&#45;&gt;pcsc</title>
<path fill="none" stroke="black" d="M249.925,-303.863C249.752,-264.567 249.328,-167.703 249.119,-120.181"/>
<polygon fill="black" stroke="black" points="252.619,-120.009 249.075,-110.025 245.619,-120.04 252.619,-120.009"/>
</g>
<!-- reader -->
<g id="node10" class="node"><title>reader</title>
<ellipse fill="none" stroke="black" cx="249" cy="-18" rx="70.2668" ry="18"/>
<text text-anchor="middle" x="249" y="-14.3" font-family="Linux Biolinum O" font-size="14.00">Lecteur de carte</text>
</g>
<!-- gpg&#45;&gt;reader -->
<g id="edge5" class="edge"><title>gpg&#45;&gt;reader</title>
<path fill="none" stroke="black" stroke-dasharray="1,5" d="M227.994,-311.354C204.619,-299.441 171,-276.783 171,-245 171,-245 171,-245 171,-91 171,-68.8277 188.228,-51.5932 206.491,-39.5526"/>
<polygon fill="black" stroke="black" points="208.765,-42.2645 215.468,-34.06 205.112,-36.2934 208.765,-42.2645"/>
<text text-anchor="middle" x="196.5" y="-169" font-family="Times,serif" font-size="10.00">Pilote CCID</text>
<text text-anchor="middle" x="196.5" y="-158" font-family="Times,serif" font-size="10.00">interne</text>
</g>
<!-- gpg2 -->
<g id="node6" class="node"><title>gpg2</title>
<ellipse fill="none" stroke="black" cx="325" cy="-322" rx="28.3955" ry="18"/>
<text text-anchor="middle" x="325" y="-318.3" font-family="Linux Biolinum O" font-size="14.00">gpg2</text>
</g>
<!-- gpg2&#45;&gt;agent -->
<g id="edge8" class="edge"><title>gpg2&#45;&gt;agent</title>
<path fill="none" stroke="black" d="M325.227,-303.754C325.348,-294.523 325.501,-282.935 325.638,-272.495"/>
<polygon fill="black" stroke="black" points="329.142,-272.223 325.774,-262.177 322.143,-272.13 329.142,-272.223"/>
</g>
<!-- gpgsm -->
<g id="node7" class="node"><title>gpgsm</title>
<ellipse fill="none" stroke="black" cx="407" cy="-322" rx="35.1455" ry="18"/>
<text text-anchor="middle" x="407" y="-318.3" font-family="Linux Biolinum O" font-size="14.00">gpgsm</text>
</g>
<!-- gpgsm&#45;&gt;agent -->
<g id="edge9" class="edge"><title>gpgsm&#45;&gt;agent</title>
<path fill="none" stroke="black" d="M390.997,-305.985C379.435,-295.136 363.605,-280.284 350.463,-267.953"/>
<polygon fill="black" stroke="black" points="352.776,-265.324 343.088,-261.033 347.986,-270.428 352.776,-265.324"/>
</g>
<!-- scdaemon -->
<g id="node11" class="node"><title>scdaemon</title>
<ellipse fill="none" stroke="black" cx="326" cy="-166" rx="48.1437" ry="18"/>
<text text-anchor="middle" x="326" y="-162.3" font-family="Linux Biolinum O" font-size="14.00">scdaemon</text>
</g>
<!-- agent&#45;&gt;scdaemon -->
<g id="edge10" class="edge"><title>agent&#45;&gt;scdaemon</title>
<path fill="none" stroke="black" d="M326,-225.754C326,-216.523 326,-204.935 326,-194.495"/>
<polygon fill="black" stroke="black" points="329.5,-194.177 326,-184.177 322.5,-194.177 329.5,-194.177"/>
</g>
<!-- pcsc&#45;&gt;reader -->
<g id="edge4" class="edge"><title>pcsc&#45;&gt;reader</title>
<path fill="none" stroke="black" d="M249,-73.937C249,-65.8072 249,-55.8761 249,-46.7047"/>
<polygon fill="black" stroke="black" points="252.5,-46.4406 249,-36.4407 245.5,-46.4407 252.5,-46.4406"/>
</g>
<!-- scdaemon&#45;&gt;pcsc -->
<g id="edge11" class="edge"><title>scdaemon&#45;&gt;pcsc</title>
<path fill="none" stroke="black" d="M308.911,-149.021C298.544,-139.326 285.138,-126.792 273.638,-116.038"/>
<polygon fill="black" stroke="black" points="275.736,-113.208 266.041,-108.934 270.955,-118.321 275.736,-113.208"/>
</g>
<!-- scdaemon&#45;&gt;reader -->
<g id="edge12" class="edge"><title>scdaemon&#45;&gt;reader</title>
<path fill="none" stroke="black" stroke-dasharray="1,5" d="M325.711,-147.828C324.71,-128.687 321.001,-97.3595 308,-74 301.162,-61.7144 290.612,-50.6052 280.314,-41.6396"/>
<polygon fill="black" stroke="black" points="282.489,-38.8965 272.553,-35.2174 278.026,-44.2893 282.489,-38.8965"/>
<text text-anchor="middle" x="346.5" y="-95" font-family="Times,serif" font-size="10.00">Pilote CCID</text>
<text text-anchor="middle" x="346.5" y="-84" font-family="Times,serif" font-size="10.00">interne</text>
</g>
</g>
</svg>
